<svg version="1" xmlns="https://www.w3.org/2000/svg" width="1466.667" height="1466.667" viewBox="0 0 1100.000000 1100.000000"><path d="M39.1 463.7c0 120.4.5 222.2.9 226.3 4.8 45.4 14.1 74.6 32.1 101.5 22.6 33.7 54.6 53.5 98.9 61.1 11.3 2 45.4 2.6 59.8 1.2 26.3-2.7 51.8-11.9 71.7-25.9 12.2-8.6 31.1-27.7 42.4-42.9 5.1-6.9 9.6-12.6 10.1-12.8.4-.2 2.1 2.1 3.8 5.1 5 8.8 16.4 23.3 25.9 32.9 23.9 24.3 50.9 37.8 86.3 43.3 9.5 1.4 44.8 1.5 53 .1 10.8-1.9 23.5-4.9 30.5-7.2 48.7-15.9 88-55.6 104.5-105.4 3.4-10.5 7.5-29.4 8.6-39.5.4-3.9.8-8.1.9-9.5.2-1.4.3-64.1.4-139.3l.1-136.8 37.3.2c40.2.3 51.9.9 69.8 3.9 27.9 4.7 49.2 13.5 66.4 27.3 17.3 14 29.3 34.2 33.9 57.2 2.7 13.6 2.8 14.6 3.1 30 1.3 72-32.4 114-102.7 128-10.7 2.2-35.5 4.3-51.1 4.4l-9.7.1.2 87.7.3 87.8h29c25.3 0 48.6-.9 50.4-1.9.3-.2 3.3-.6 6.6-1 6.8-.7 8.8-1 20-3.2 36.4-7.1 71.4-20.5 100.5-38.7 9.3-5.8 27.6-18.8 31.5-22.4 1.1-1 3.6-3.1 5.5-4.7 9.3-7.5 27.1-25.9 36.8-38 36.2-44.7 57.7-100 62.9-162.1 1-11.6 1-53.1 0-65.7-2-26.8-9.9-59.6-20.3-85.2-23.5-57.6-70.2-107.4-127.9-136.3-12.1-6-37.1-16.3-39.7-16.3-.8 0-1.8-.4-2.4-.9-1.4-1.3-29.3-8.7-43.4-11.5-12.2-2.5-23-4.2-32-5.2-2.5-.3-5.4-.7-6.5-.9-1.1-.2-5.6-.7-10-1-4.4-.4-9.3-.9-11-1.2-1.6-.4-64.1-.8-138.7-1l-135.8-.4-.1 195.3c0 107.4-.2 198.4-.5 202.3-1.3 18-6.4 29.5-15.4 34.1-4.7 2.4-16.2 2.5-20.7.1-6.8-3.6-10.5-12.6-11.7-28.7-.3-3.6-.5-95.7-.5-204.8L443 245H266l-.1 198.2c0 109.1-.2 200.1-.5 202.3-2.5 25.1-13.9 36.5-32.6 32.6-11-2.3-14.7-9.3-16.2-31.1-.3-3.6-.5-95.5-.5-204.3L216 245H39l.1 218.7z"/></svg>